<svg width="340" height="62" viewBox="0 0 340 62" fill="none" xmlns="http://www.w3.org/2000/svg">
<g clip-path="url(#clip0_1139_229)">
<path d="M50.1804 1.69811C55.903 1.62027 61.7902 1.6912 67.5227 1.6911H101.251L202.574 1.69119H259.656L277.869 1.6904C281.048 1.68823 284.313 1.60841 287.471 1.72715C290.679 1.84787 293.599 5.03543 293.617 8.2067C293.636 11.3679 293.633 14.5008 293.629 17.6499L293.626 35.9413L293.628 47.5405C293.629 48.8373 293.724 52.0208 293.568 53.144C293.373 54.4923 292.776 55.751 291.854 56.7569C290.659 58.0754 288.99 58.8708 287.21 58.9702C281.552 59.0525 275.705 58.9766 270.037 58.9766L236.557 58.9768L136.206 58.9767H78.3043L59.7149 58.9784C56.4975 58.9801 53.2216 59.0112 50.0052 58.9427C48.9212 58.9195 47.4135 58.2742 46.552 57.6144C45.0639 56.4733 44.0992 54.7837 43.8752 52.9262C43.7068 51.5183 43.8064 47.3363 43.8084 45.7195L43.8152 31.6255L43.8116 15.9528C43.8081 13.2549 43.7018 10.4281 43.8875 7.75101C44.1171 4.44313 47.0122 2.04978 50.1804 1.69811Z" fill="black"/>
<path d="M241.933 12.6127C243.924 12.5431 246.174 12.5962 248.195 12.5977L257.853 12.5811C258.414 12.5817 258.965 12.585 259.518 12.6241C263.527 12.9076 266.493 16.6008 266.301 20.5312C266.176 23.1185 265.441 24.6033 263.587 26.3834C260.635 28.6751 257.557 28.1193 254.016 28.1187L241.965 28.1032C241.536 27.8191 241.101 27.5297 241.085 26.9661C241.041 25.4706 241.063 23.9678 241.064 22.4707L241.076 13.4012C241.409 12.9974 241.479 12.8869 241.933 12.6127Z" fill="#FEFEFE"/>
<path d="M243.58 15.281L254.267 15.2723C256.528 15.2714 260.427 14.8176 262.106 16.4754C264.306 18.6465 264.391 21.7938 262.244 24.0601C261.746 24.531 260.832 25.1622 260.163 25.2616C258.372 25.528 256.081 25.4298 254.257 25.4291L243.58 25.4214V15.281Z" fill="black"/>
<path d="M126.875 12.634C127.676 12.4973 132.412 12.6043 133.49 12.5986C136.668 12.6517 139.872 12.5025 143.047 12.6079C148.799 12.7989 149.749 20.756 144.703 22.8995C145.557 23.9983 146.932 25.4087 147.89 26.5322L146.084 28.3777L145.001 27.1773L141.428 23.1772H126.739V28.1122H124.197L124.187 19.7677C124.185 17.0968 123.452 13.2563 126.875 12.634Z" fill="#FEFEFE"/>
<path d="M126.956 15.2926C127.457 15.2757 127.974 15.2776 128.486 15.2836C133.512 15.3418 138.57 15.1479 143.588 15.3603C143.846 15.3712 144.361 15.6545 144.56 15.8352C145.821 16.9834 145.627 18.7535 144.571 19.9717C143.475 20.7831 139.15 20.5146 137.642 20.5139L126.739 20.5059C126.732 19.5948 126.57 15.7862 126.956 15.2926Z" fill="black"/>
<path d="M101.13 12.6428C101.794 12.5249 106.445 12.5974 107.373 12.5981L121.705 12.5945V15.2808C115.294 15.2768 108.886 15.2731 102.473 15.2799C100.612 15.2819 100.197 15.6755 100.172 17.5967C100.165 18.0931 100.184 18.6069 100.193 19.1046L121.705 19.1048V21.7848L112.136 21.785H100.193C100.16 23.3165 99.8335 24.4992 101.263 25.41C103.506 25.4725 106.024 25.4208 108.287 25.421L121.705 25.4215V28.1123L107.921 28.1195C105.66 28.1205 103.346 28.1691 101.115 28.0453C99.4542 27.87 97.9152 26.2801 97.7652 24.6456C97.6198 23.0612 97.6466 21.4268 97.6738 19.8502C97.694 18.6889 97.5836 16.9626 97.767 15.8865C97.8749 15.2877 98.1232 14.7228 98.4914 14.2376C99.177 13.3169 100.005 12.8124 101.13 12.6428Z" fill="#FEFEFE"/>
<path d="M217.972 12.6461C218.763 12.5116 223.317 12.5972 224.314 12.5982L238.523 12.5944V15.281L224.931 15.2761C222.72 15.2757 220.478 15.2317 218.273 15.3326C216.697 15.4047 217.041 18.0517 217.058 19.1047H238.523V21.7849H228.829H217.058C217.052 22.6599 217.059 23.535 217.08 24.4098C217.432 24.9242 217.711 25.3601 218.392 25.3847C220.582 25.4637 222.785 25.4272 224.979 25.4267L238.523 25.4214V28.1123L224.706 28.119C223.336 28.1196 219.143 28.2097 217.925 28.0388C217.343 27.9617 216.79 27.7428 216.314 27.4017C215.406 26.7699 214.793 25.8004 214.612 24.7123C214.477 23.9214 214.46 16.7479 214.591 15.9897C214.698 15.3629 214.95 14.7695 215.326 14.2562C216.007 13.3217 216.84 12.8158 217.972 12.6461Z" fill="#FEFEFE"/>
<path d="M74.6202 12.646C75.2766 12.5261 79.9113 12.5974 80.8527 12.5981L95.1733 12.5943V15.2809L81.8292 15.2788C79.7623 15.278 76.5937 15.1803 74.5923 15.3303C74.1434 15.6887 74.0773 15.7809 73.7386 16.2497C73.6319 18.428 73.669 22.2458 73.7463 24.4453L73.8216 24.5468C74.5776 25.5789 75.4054 25.4634 76.5985 25.4543C77.6376 25.4464 78.6776 25.4279 79.7168 25.4213H95.1733V28.1122L81.4533 28.1089C79.2135 28.1104 76.728 28.2406 74.5495 28.0357C72.1813 27.8128 71.0052 25.3054 71.1355 23.1762C71.2706 20.965 71.0256 18.715 71.1132 16.5054C71.1663 16.1911 71.3176 15.8477 71.407 15.5536C71.9193 13.8676 72.8664 12.8968 74.6202 12.646Z" fill="#FEFEFE"/>
<path d="M185.62 12.624C187.397 12.4893 190.877 12.5921 192.791 12.5921L207.001 12.5944V15.2808L187.284 15.2811V18.9742H197.301L207.001 18.9745V21.6579H187.284V28.1123H184.759L184.752 18.3039C184.747 16.8543 184.695 15.1041 184.805 13.6586C184.839 13.1919 185.25 12.8705 185.62 12.624Z" fill="#FEFEFE"/>
<path d="M237.634 39.4013C239.259 39.326 241.228 39.3908 242.874 39.3779C243.971 39.3694 246.791 39.276 247.758 39.4672C248.404 39.5945 249.008 39.8769 249.519 40.2899C251.575 41.9663 251.318 44.7636 249.7 46.6647C249.477 46.8523 249.113 47.119 248.882 47.267C248.646 47.419 248.047 47.6791 247.791 47.6786C245.774 47.6736 239.279 47.9665 237.674 47.599C237.244 47.2323 237.222 45.9083 237.302 45.3853C237.505 44.0664 236.927 40.3085 237.634 39.4013Z" fill="#FEFEFE"/>
<path d="M238.671 40.8099L244.406 40.7948C245.143 40.7932 246.804 40.6956 247.45 40.8643C249.774 41.4703 250.142 43.792 248.856 45.4903C248.577 45.76 248.088 46.1306 247.71 46.1678C244.976 46.4383 241.414 46.307 238.664 46.2999L238.671 40.8099Z" fill="black"/>
<path d="M150.458 12.595L177.241 12.5944V15.281L169.414 15.2716C168.232 15.2703 166.365 15.2165 165.242 15.3116C165.081 15.5057 165.139 15.5308 165.128 15.8552V28.1123H162.603V15.281H150.458V12.595Z" fill="#FEFEFE"/>
<path d="M159.643 39.4102C162.578 39.1541 166.189 39.4317 169.15 39.4415C170.381 39.7248 170.917 41.1686 170.802 42.175C170.547 44.4096 171.59 46.3912 169.284 47.6929C168.569 47.7829 166.023 47.7599 165.214 47.7437C163.501 47.7093 161.163 47.8269 159.506 47.6835C157.822 46.6146 158.069 45.2524 158.06 43.4906C158.051 41.7251 157.862 40.3348 159.643 39.4102Z" fill="#FEFEFE"/>
<path d="M160.045 40.81L165.335 40.794C166.263 40.7907 168.561 40.6291 169.23 41.1728C169.542 41.8119 169.371 44.7359 169.369 45.6613C169.369 45.9323 169.02 46.1602 168.793 46.3C166.224 46.3094 163.636 46.3224 161.067 46.3116C160.653 46.31 159.934 46.2535 159.641 45.9401C159.317 45.1672 159.469 43.9308 159.471 43.0796C159.473 42.1672 159.197 41.3742 160.045 40.81Z" fill="black"/>
<path d="M91.4713 39.4059C94.4369 39.1959 97.9878 39.4672 100.974 39.4381C101.169 39.4362 101.624 39.7937 101.761 39.9368C102.852 41.0703 102.964 44.2493 101.801 45.3551C101.068 46.0501 100.191 45.9997 99.2477 45.9802H91.229V47.7497H89.8415C89.8481 46.9201 89.7688 45.9582 89.8272 45.1513C89.9823 43.01 89.0731 40.4732 91.4713 39.4059Z" fill="#FEFEFE"/>
<path d="M91.8357 40.818L97.4284 40.8053C98.3757 40.8041 99.4467 40.7856 100.382 40.8465C101.476 40.9178 101.214 43.1197 101.14 43.8325C101.104 44.1817 100.798 44.3646 100.528 44.5288L91.2292 44.529C91.2435 43.5022 90.852 41.3012 91.8357 40.818Z" fill="black"/>
<path d="M110.035 39.4049C112.331 39.202 117.366 39.3128 119.653 39.4535C121.713 39.5803 122.756 43.3271 119.928 44.9743C120.499 45.6159 121.066 46.2615 121.628 46.9111C121.493 47.0671 121.355 47.2218 121.216 47.3751C120.945 47.6719 120.895 47.7514 120.547 47.768L120.246 47.4599C119.544 46.669 118.838 45.882 118.127 45.0992H110.181V47.7498H108.812C108.812 46.2433 108.687 41.3603 108.966 40.1923C109.42 39.7451 109.46 39.687 110.035 39.4049Z" fill="#FEFEFE"/>
<path d="M110.297 40.812C111.848 40.8094 118.665 40.5486 119.628 41.0039C119.908 41.1359 120.15 41.4024 120.242 41.6973C120.433 42.3105 120.185 42.8421 119.887 43.3603C118.901 43.8037 117.188 43.6555 116.07 43.6536L110.181 43.6411C110.173 43.0611 110.096 41.2533 110.297 40.812Z" fill="black"/>
<path d="M129.544 39.4155C130.588 39.3146 132.488 39.3703 133.606 39.3705L141.018 39.375V40.8098L133.722 40.8018C132.524 40.801 131.304 40.7699 130.112 40.8433C129.192 40.9 129.38 42.2705 129.396 42.9093H141.018V44.3397H136.228H129.396L129.388 44.6479C129.377 45.1218 129.297 45.7441 129.692 46.0972C130.117 46.4768 139.645 46.3018 141.018 46.2998V47.7498L133.906 47.7535C132.531 47.7548 130.8 47.8053 129.456 47.6904C127.973 46.7604 127.955 46.0382 127.983 44.3568C128.003 43.2137 127.906 41.9583 128.136 40.8379C128.272 40.1794 129.007 39.7056 129.544 39.4155Z" fill="#FEFEFE"/>
<path d="M219.573 39.4076C220.721 39.3225 222.434 39.3716 223.634 39.3717L230.975 39.3751V40.8098L223.646 40.8002C222.484 40.799 221.241 40.7633 220.084 40.8418C219.161 40.9045 219.343 42.2487 219.362 42.9094H230.975V44.3398H226.053H219.362C219.335 45.1155 219.135 46.2113 220.206 46.2696C221.419 46.3357 222.633 46.3096 223.848 46.3087L230.975 46.2999V47.7498L223.789 47.7548C222.505 47.7553 220.637 47.8095 219.402 47.6815C217.548 46.5122 218 45.2269 217.955 43.2595C217.913 41.4686 217.763 40.3085 219.573 39.4076Z" fill="#FEFEFE"/>
<path d="M176.987 39.3829H178.787C179.799 41.3636 181.154 43.9321 182.053 45.944C182.679 44.2231 184.136 41.0788 184.932 39.3829L186.224 39.3831C186.78 40.3227 188.659 44.7213 189.122 45.8766C190.188 43.8789 191.328 41.2727 192.433 39.3829L194.154 39.3831C194.015 39.667 193.882 39.9528 193.751 40.2405C193.393 40.8215 192.794 42.1067 192.461 42.7721L189.975 47.7368H188.236C187.744 46.3351 186.252 43.2171 185.612 41.7348C184.858 43.2384 183.579 46.1769 182.976 47.7367H181.18C180.989 47.2836 180.73 46.744 180.497 46.3085C179.294 44.0593 178.264 41.5801 176.987 39.3829Z" fill="#FEFEFE"/>
<path d="M198.839 39.223C199.767 39.3088 208.695 44.8949 210.271 45.8397V39.4015L211.666 39.4013L211.687 44.6003C211.69 45.5056 211.876 47.1914 211.267 47.8366C211.249 47.8353 211.23 47.8347 211.212 47.8329C211.183 47.8299 211.154 47.825 211.124 47.8222C210.178 47.7337 201.287 42.1243 199.785 41.2408V47.7302L198.441 47.7318C198.454 45.3317 198.334 42.1775 198.499 39.7367C198.507 39.6211 198.757 39.3189 198.839 39.223Z" fill="#FEFEFE"/>
<path d="M179.755 12.6614L182.277 12.6616V28.1271L179.755 28.1291V12.6614Z" fill="#FEFEFE"/>
<path d="M209.533 12.6614H212.027V28.1291H209.523L209.533 12.6614Z" fill="#FEFEFE"/>
<path d="M147.312 42.8318H151.774L151.77 44.3119H147.312V42.8318Z" fill="#FEFEFE"/>
</g>
<defs>
<clipPath id="clip0_1139_229">
<rect width="340" height="62" fill="white"/>
</clipPath>
</defs>
</svg>
